<?xml version="1.0" encoding="iso-8859-1"?>
<!-- Generator: Adobe Illustrator 19.0.0, SVG Export Plug-In . SVG Version: 6.00 Build 0)  -->
<svg version="1.1" id="Layer_1" xmlns="http://www.w3.org/2000/svg" xmlns:xlink="http://www.w3.org/1999/xlink" x="0px" y="0px"
	 viewBox="0 0 512 512" style="enable-background:new 0 0 512 512;" xml:space="preserve">
<path style="fill:#C9284B;" d="M256.001,438.594c143.366,0,245.332-114.768,245.332-166.807
	c-24.676-6.612-54.814-63.637-87.227-111.232c-90.427-132.78-112.878-30.24-158.105-30.24c-45.226,0-67.677-102.541-158.107,30.24
	c-32.413,47.595-62.551,104.62-87.227,111.232C10.667,323.826,112.637,438.594,256.001,438.594L256.001,438.594z M256.372,322.943
	c-16.259-28.161-84.648-26.903-100.03-53.545c17.679-10.91,21.524-17.717,40.906-37.931c19.382-20.212,47.968-11.528,59.125,0
	c11.157-11.528,39.747-20.212,59.129,0c19.378,20.213,23.223,27.021,40.904,37.931C338.806,299.882,272.631,294.782,256.372,322.943
	z"/>
<g>
	<path style="fill:#000003;" d="M304.828,66.967c32.98-13.942,63.56-5.454,96.243,26.714c2.077,2.045,4.781,3.065,7.482,3.065
		c2.758,0,5.517-1.062,7.604-3.184c4.131-4.199,4.079-10.952-0.121-15.085c-18.044-17.759-35.758-29.212-54.156-35.008
		c-21.393-6.738-43.38-5.444-65.361,3.849c-5.425,2.293-7.965,8.553-5.671,13.978C293.142,66.723,299.399,69.265,304.828,66.967z"/>
	<path style="fill:#000003;" d="M152.073,452.078c-33.463-12.158-64.629-29.837-92.632-52.54c-4.577-3.71-11.296-3.008-15.004,1.568
		c-3.711,4.576-3.008,11.294,1.569,15.003c29.848,24.202,63.086,43.049,98.783,56.021c1.202,0.436,2.431,0.643,3.642,0.643
		c4.359,0,8.452-2.692,10.025-7.027C160.468,460.21,157.609,454.089,152.073,452.078z"/>
	<path style="fill:#000003;" d="M504.094,261.484c-14.838-3.977-37.986-40.161-58.408-72.086
		c-7.377-11.531-15.004-23.453-22.763-34.847c-33.77-49.588-62.192-72.684-89.443-72.684c-19.629,0-34.558,11.696-47.724,22.015
		c-10.348,8.109-20.123,15.767-29.756,15.767c-9.632,0-19.404-7.659-29.753-15.766c-13.167-10.319-28.093-22.016-47.726-22.016
		c-27.251,0-55.672,23.095-89.445,72.684c-7.758,11.393-15.386,23.316-22.763,34.847c-20.422,31.925-43.57,68.11-58.408,72.086
		C3.244,262.733,0,266.959,0,271.787c0,31.185,29.278,75.875,72.854,111.204c52.71,42.735,117.754,66.27,183.147,66.27
		s130.437-23.536,183.147-66.27C482.722,347.662,512,302.972,512,271.787C512,266.959,508.756,262.733,504.094,261.484z
		 M425.713,366.42c-28.335,22.97-88.057,61.507-169.712,61.507s-141.377-38.537-169.712-61.508
		c-38.428-31.154-60.345-66.069-64.304-87.931c19.9-11.317,39.757-42.354,62.299-77.595c7.296-11.403,14.838-23.194,22.425-34.335
		c28.632-42.041,52.791-63.359,71.81-63.359c12.271,0,23.1,8.488,34.567,17.474c12.742,9.984,25.918,20.308,42.912,20.308
		s30.169-10.325,42.911-20.308c11.469-8.986,22.3-17.474,34.567-17.474c19.017,0,43.178,21.317,71.808,63.359
		c7.587,11.138,15.13,22.931,22.425,34.335c22.543,35.24,42.399,66.278,62.299,77.595
		C486.056,300.349,464.138,335.265,425.713,366.42z"/>
	<path style="fill:#000003;" d="M107.23,224.197c-4.971-3.165-11.563-1.698-14.726,3.269c-1.102,1.729-2.225,3.472-3.36,5.22
		c-3.213,4.94-1.81,11.546,3.13,14.758c1.796,1.167,3.81,1.724,5.802,1.724c3.489,0,6.911-1.711,8.955-4.855
		c1.173-1.805,2.334-3.604,3.471-5.39C113.664,233.954,112.202,227.361,107.23,224.197z"/>
	<path style="fill:#000003;" d="M166.826,142.316c-4.344-3.978-11.093-3.68-15.071,0.665
		c-16.446,17.964-30.042,38.249-42.287,57.493c-3.161,4.97-1.696,11.563,3.275,14.726c1.775,1.13,3.756,1.668,5.714,1.668
		c3.528,0,6.977-1.748,9.01-4.943c11.723-18.425,24.684-37.786,40.021-54.538C171.47,153.041,171.172,146.294,166.826,142.316z"/>
	<path style="fill:#000003;" d="M375.504,297.58c-0.26,0.278-0.523,0.557-0.787,0.832c-4.068,4.26-3.913,11.013,0.346,15.082
		c2.067,1.974,4.719,2.953,7.367,2.953c2.813,0,5.619-1.105,7.714-3.299c0.313-0.327,0.623-0.656,0.931-0.986
		c4.027-4.3,3.806-11.05-0.494-15.078C386.282,293.059,379.534,293.279,375.504,297.58z"/>
	<path style="fill:#000003;" d="M353.546,313.791c-11.493,5.977-24.567,10.16-36.982,13.792c-5.655,1.654-8.898,7.579-7.244,13.232
		c1.362,4.655,5.617,7.675,10.234,7.675c0.992,0,2-0.14,3.001-0.432c13.454-3.936,27.715-8.518,40.834-15.34
		c5.227-2.718,7.261-9.158,4.542-14.384C365.213,313.108,358.773,311.074,353.546,313.791z"/>
	<path style="fill:#000003;" d="M365.642,274.731c2.885-4.996,1.275-11.382-3.635-14.411c-12.171-7.511-16.803-12.541-26.951-23.563
		c-3.336-3.621-7.115-7.726-11.856-12.672c-9.661-10.076-22.119-15.401-36.03-15.401c-10.805,0-22.047,3.429-30.797,9.118
		c-8.748-5.689-19.99-9.118-30.795-9.118c-13.909,0-26.368,5.325-36.03,15.401c-4.748,4.952-8.529,9.059-11.867,12.685
		c-10.144,11.015-14.772,16.042-26.938,23.551c-4.911,3.029-6.521,9.415-3.637,14.411c9.673,16.754,32.659,23.888,54.887,30.786
		c19.17,5.948,38.989,12.101,45.143,22.759c1.906,3.301,5.427,5.333,9.238,5.333c3.81,0,7.334-2.032,9.238-5.333
		c5.827-10.091,24.228-15.45,42.024-20.634C330.689,300.927,354.527,293.985,365.642,274.731z M301.67,287.159
		c-16.588,4.83-33.603,9.786-45.258,19.562c-12.167-10.429-30.364-16.076-48.097-21.579c-13.325-4.136-26.982-8.375-35.547-14.046
		c7.792-5.958,13.142-11.769,20.606-19.876c3.268-3.55,6.973-7.575,11.572-12.369c5.621-5.861,12.563-8.833,20.632-8.833
		c9.994,0,18.997,4.596,23.13,8.869c2.011,2.076,4.776,3.248,7.665,3.248c2.89,0,5.657-1.172,7.665-3.248
		c4.136-4.272,13.135-8.869,23.131-8.869c8.071,0,15.011,2.972,20.632,8.832c4.592,4.789,8.294,8.811,11.561,12.358
		c7.613,8.27,13.03,14.153,21.076,20.236C331.172,278.568,316.23,282.919,301.67,287.159z"/>
</g>
<g>
</g>
<g>
</g>
<g>
</g>
<g>
</g>
<g>
</g>
<g>
</g>
<g>
</g>
<g>
</g>
<g>
</g>
<g>
</g>
<g>
</g>
<g>
</g>
<g>
</g>
<g>
</g>
<g>
</g>
</svg>
